<svg xmlns="http://www.w3.org/2000/svg" viewBox="0 0 144 120">
<style>.st0{fill:#5ABA47;}</style>
<g>
<path class="st0" d="M98.8,77.9L93,62.8c1.3-4.4,1.7-7.8,1.6-9.9c-0.3-5.2-3.6-5.7-4.9-5.7c-5.8,0-10.5,4.8-13.9,10H67c-4.4-6.5-8.4-9.1-12-7.8c-0.7,0.2-1.6,0.8-2.2,2.1c-1.1,2.4-0.6,7.1,0.7,12.4L45,77.6c-0.5,0.9-0.5,1.9,0,2.8s1.4,1.4,2.4,1.4h11.9c0.2,0.4,0.3,0.9,0.5,1.3c0.6,1.6,1.2,3.2,1.7,4.7c1.9,5.4,3.9,9.3,8,9.3c0.2,0,0.5,0,0.8-0.1C76,96.3,81.6,87.8,85,81.8h11.3c0.9,0,1.8-0.5,2.3-1.2C99,79.8,99.1,78.8,98.8,77.9z M89.6,50.9c0.5,0.1,1,0.2,1.1,2.2c0.1,1.4-0.1,3.3-0.6,5.5c-1.3-1-2.9-1.5-4.6-1.5s-5.2,0-5.2,0C83,53.6,86.2,50.6,89.6,50.9z M73.4,60.9c-0.8,1.4-1.4,3.5-2,4.7c-0.6-1.2-1.3-3.3-2.1-4.7C69.3,60.9,73.4,60.9,73.4,60.9z M55.9,53.8c0.1-0.7,0.8-1.1,1.5-0.9c1.4,0.4,3.1,2,4.8,4.3h-0.5c-2.1,0-4,0.9-5.4,2.3C55.7,56.4,55.8,54.7,55.9,53.8z M49,77.9l5.7-9.2c0.9,3.1,2,6.3,3,9.2H49z M82.9,77.3c-0.1,0.2-0.2,0.4-0.4,0.7h-8.4c-1,0-1.9,0.8-1.9,1.9c0,1,0.8,1.9,1.9,1.9h6.3c-4.8,8-8.5,11.2-10.8,11.5c-1.5,0.2-3.1-1.9-4.7-6.7c-0.5-1.5-1.1-3.1-1.7-4.8c-1.5-3.7-4.1-10.7-5.8-17.3l1-1.6c0.7-1.2,2-1.9,3.3-1.9h3.1c1.9,3,3.6,6.3,4.9,9.3c0.3,0.7,1,1.2,1.8,1.1c0.8,0,1.5-0.5,1.7-1.3c0.8-2.2,2.3-5.8,4.4-9.2c0,0,6.1,0,7.5,0s3,0.8,3.7,2.1C87.5,67.3,85.5,72.4,82.9,77.3z M86.8,77.9c1.7-3.4,3.1-6.6,4.2-9.5l3.7,9.5H86.8z"/>
<path class="st0" d="M94,100.3c-7.6-0.6-17.2,0-28.6,1.8c-8.4,1.3-14.8,2.9-14.8,2.9c-1,0.3-1.6,1.3-1.4,2.3c0.2,0.9,1,1.4,1.8,1.4c0.2,0,0.3,0,0.5-0.1c0,0,6.3-1.6,14.5-2.9c11-1.7,20.3-2.3,27.5-1.7c1,0.1,1.9-0.6,2-1.7C95.6,101.4,94.9,100.4,94,100.3z"/>
<path class="st0" d="M50.3,19.5c7.6,0.6,17.2,0,28.6-1.8c8.4-1.3,14.8-2.9,14.8-2.9c1-0.3,1.6-1.3,1.4-2.3c-0.2-0.9-1-1.4-1.8-1.4c-0.2,0-0.3,0-0.5,0.1c0,0-6.3,1.6-14.5,2.9c-11,1.7-20.3,2.3-27.5,1.7c-1-0.1-1.9,0.6-2,1.7C48.7,18.4,49.4,19.4,50.3,19.5z"/>
</g>
</svg>
